<svg width="19" height="17" viewBox="0 0 19 17" fill="none" xmlns="http://www.w3.org/2000/svg">
<path fill-rule="evenodd" clip-rule="evenodd" d="M13.8824 0.666016C16.6574 0.666016 18.7499 2.93018 18.7499 5.93268V11.656C18.7499 13.1927 18.2066 14.581 17.2191 15.566C16.3333 16.4485 15.1841 16.916 13.8958 16.916H5.68492C4.39909 16.916 3.25075 16.4493 2.36409 15.566C1.37659 14.581 0.833252 13.1927 0.833252 11.656V5.93268C0.833252 2.93018 2.92575 0.666016 5.70075 0.666016H13.8824ZM13.8824 1.91602H5.70075C3.60492 1.91602 2.08325 3.60518 2.08325 5.93268V11.656C2.08325 12.8585 2.49659 13.9327 3.24659 14.6802C3.89325 15.326 4.73742 15.666 5.68742 15.666H13.8824C13.8841 15.6643 13.8908 15.666 13.8958 15.666C14.8466 15.666 15.6899 15.326 16.3366 14.6802C17.0874 13.9327 17.4999 12.8585 17.4999 11.656V5.93268C17.4999 3.60518 15.9783 1.91602 13.8824 1.91602ZM15.1958 5.77335C15.4133 6.04085 15.3724 6.43418 15.1049 6.65252L11.4016 9.66252C10.9333 10.0342 10.3733 10.22 9.81409 10.22C9.25659 10.22 8.70075 10.0358 8.23575 9.66751L4.49825 6.65418C4.22909 6.43752 4.18742 6.04335 4.40325 5.77502C4.62075 5.50752 5.01409 5.46502 5.28242 5.68085L9.01658 8.69085C9.48575 9.06252 10.1466 9.06252 10.6191 8.68752L14.3158 5.68252C14.5841 5.46335 14.9774 5.50502 15.1958 5.77335Z" fill="#B0B0B2"/>
</svg>
