<svg width="15" height="17" viewBox="0 0 15 17" fill="none" xmlns="http://www.w3.org/2000/svg">
<path fill-rule="evenodd" clip-rule="evenodd" d="M7.20795 0.666016C10.9988 0.666016 14.0829 3.77352 14.0829 7.59352C14.0829 12.2893 8.70295 16.916 7.20795 16.916C5.71295 16.916 0.332947 12.2893 0.332947 7.59352C0.332947 3.77352 3.41711 0.666016 7.20795 0.666016ZM7.20795 1.91602C4.10628 1.91602 1.58295 4.46352 1.58295 7.59352C1.58295 11.576 6.26961 15.456 7.20795 15.6627C8.14628 15.4552 12.8329 11.5752 12.8329 7.59352C12.8329 4.46352 10.3096 1.91602 7.20795 1.91602ZM7.20878 4.83268C8.70211 4.83268 9.91711 6.04768 9.91711 7.54185C9.91711 9.03518 8.70211 10.2493 7.20878 10.2493C5.71545 10.2493 4.50045 9.03518 4.50045 7.54185C4.50045 6.04768 5.71545 4.83268 7.20878 4.83268ZM7.20878 6.08268C6.40461 6.08268 5.75045 6.73685 5.75045 7.54185C5.75045 8.34602 6.40461 8.99935 7.20878 8.99935C8.01295 8.99935 8.66711 8.34602 8.66711 7.54185C8.66711 6.73685 8.01295 6.08268 7.20878 6.08268Z" fill="#B0B0B2"/>
</svg>
