<svg width="22" height="20" viewBox="0 0 22 20" fill="none" xmlns="http://www.w3.org/2000/svg">
<path fill-rule="evenodd" clip-rule="evenodd" d="M15.6589 0C18.9889 0 21.4999 2.717 21.4999 6.32V13.188C21.4999 15.032 20.8479 16.698 19.6629 17.88C18.5999 18.939 17.2209 19.5 15.6749 19.5H5.82188C4.27888 19.5 2.90088 18.94 1.83688 17.88C0.651878 16.698 -0.00012207 15.032 -0.00012207 13.188V6.32C-0.00012207 2.717 2.51088 0 5.84088 0H15.6589ZM15.6589 1.5H5.84088C3.32588 1.5 1.49988 3.527 1.49988 6.32V13.188C1.49988 14.631 1.99588 15.92 2.89588 16.817C3.67188 17.592 4.68488 18 5.82488 18H15.6589C15.6609 17.998 15.6689 18 15.6749 18C16.8159 18 17.8279 17.592 18.6039 16.817C19.5049 15.92 19.9999 14.631 19.9999 13.188V6.32C19.9999 3.527 18.1739 1.5 15.6589 1.5ZM17.2349 6.1288C17.4959 6.4498 17.4469 6.9218 17.1259 7.1838L12.6819 10.7958C12.1199 11.2418 11.4479 11.4648 10.7769 11.4648C10.1079 11.4648 9.44088 11.2438 8.88288 10.8018L4.39788 7.1858C4.07488 6.9258 4.02488 6.4528 4.28388 6.1308C4.54488 5.8098 5.01688 5.7588 5.33888 6.0178L9.81988 9.6298C10.3829 10.0758 11.1759 10.0758 11.7429 9.6258L16.1789 6.0198C16.5009 5.7568 16.9729 5.8068 17.2349 6.1288Z" fill="white"/>
</svg>
