<svg width="19" height="18" viewBox="0 0 19 18" fill="none" xmlns="http://www.w3.org/2000/svg">
<path fill-rule="evenodd" clip-rule="evenodd" d="M4.5479 0.666466C5.47874 0.678966 6.14207 1.37647 6.98124 2.25897C7.18874 2.47647 7.4129 2.71397 7.66374 2.96397C8.87957 4.18063 8.53374 5.17313 8.25457 5.9698C7.95124 6.83897 7.68874 7.58897 9.2604 9.16063C10.8321 10.7323 11.5812 10.4698 12.4496 10.164C13.2471 9.88563 14.2371 9.5373 15.4554 10.754C15.7029 11.0015 15.9362 11.2231 16.1529 11.429C17.0387 12.2723 17.7387 12.9381 17.7505 13.8715C17.7596 14.6665 17.2762 15.4781 16.0829 16.6715L15.5546 16.3131L16.0021 16.749C15.7379 17.0198 15.0354 17.7415 13.6596 17.7498H13.6346C11.5579 17.7498 8.8504 16.0965 5.58707 12.834C2.3104 9.55813 0.654571 6.8423 0.667001 4.76147C0.674571 3.38647 1.3954 2.6823 1.66624 2.41813L1.68935 2.39289L1.7454 2.33647C2.94124 1.14063 3.7629 0.648966 4.5479 0.666466ZM4.53207 1.91647H4.5254C4.15119 1.91647 3.58288 2.29147 2.79026 3.06138L2.6311 3.21768L2.6329 3.2173C2.6329 3.2173 2.6193 3.2329 2.59612 3.25654L2.5404 3.3123C2.33874 3.50813 1.92124 3.91563 1.91703 4.76813C1.9104 5.96063 2.69457 8.1748 6.4704 11.9498C10.2279 15.7065 12.4387 16.4998 13.6346 16.4998H13.6521C14.5046 16.4948 14.9112 16.0773 15.1071 15.8765C15.1662 15.8156 15.2146 15.7698 15.2487 15.7423C16.0796 14.9065 16.5046 14.2856 16.5004 13.8865C16.4954 13.4798 15.9896 12.9998 15.2904 12.334C15.0679 12.1231 14.8262 11.8923 14.5712 11.6373C13.9096 10.9781 13.5837 11.0906 12.8629 11.344C11.8671 11.6931 10.5029 12.1715 8.37707 10.044C6.2504 7.91813 6.72707 6.55397 7.07457 5.5573C7.32624 4.8373 7.44124 4.5098 6.7804 3.84813C6.52207 3.5898 6.28957 3.3448 6.0754 3.1198C5.41374 2.4248 4.93624 1.9223 4.53207 1.91647ZM11.7055 3.63105C13.4397 3.96772 14.7788 5.30605 15.1163 7.04105C15.1822 7.38105 14.9613 7.70855 14.623 7.77438C14.5822 7.78188 14.5422 7.78605 14.5022 7.78605C14.2088 7.78605 13.948 7.57938 13.8897 7.28105C13.6497 6.04772 12.6988 5.09688 11.4672 4.85772C11.128 4.79188 10.9072 4.46438 10.973 4.12522C11.0388 3.78605 11.3722 3.56438 11.7055 3.63105ZM11.6556 0.671216C15.0539 1.04872 17.6931 3.68455 18.0739 7.08205C18.1122 7.42538 17.8656 7.73455 17.5231 7.77288C17.4997 7.77538 17.4756 7.77705 17.4522 7.77705C17.1381 7.77705 16.8681 7.54122 16.8322 7.22205C16.5164 4.40872 14.3314 2.22538 11.5172 1.91288C11.1747 1.87455 10.9272 1.56622 10.9656 1.22288C11.0031 0.880382 11.3089 0.627882 11.6556 0.671216Z" fill="#B0B0B2"/>
</svg>
